<mxfile host="Electron" modified="2024-02-13T17:35:16.417Z" agent="Mozilla/5.0 (Macintosh; Intel Mac OS X 10_15_7) AppleWebKit/537.36 (KHTML, like Gecko) draw.io/23.0.2 Chrome/120.0.6099.109 Electron/28.1.0 Safari/537.36" etag="BBToB9Hct1gx855lSqR9" version="23.0.2" type="device">
  <diagram id="KD6A33hOnKHh0tPZ0QpS" name="Page-1">
    <mxGraphModel dx="1194" dy="824" grid="1" gridSize="10" guides="1" tooltips="1" connect="1" arrows="1" fold="1" page="1" pageScale="1" pageWidth="850" pageHeight="1100" math="0" shadow="0">
      <root>
        <mxCell id="0" />
        <mxCell id="1" parent="0" />
        <mxCell id="s0LngXk4wrC1B4DQAVKM-2" value="" style="edgeStyle=orthogonalEdgeStyle;rounded=0;orthogonalLoop=1;jettySize=auto;html=1;" parent="1" source="cqa180hqLIQ2aw_EELrV-1" target="s0LngXk4wrC1B4DQAVKM-1" edge="1">
          <mxGeometry relative="1" as="geometry" />
        </mxCell>
        <mxCell id="cqa180hqLIQ2aw_EELrV-1" value="fingerprint" style="rounded=1;whiteSpace=wrap;html=1;fontSize=16;" parent="1" vertex="1">
          <mxGeometry x="200" y="160" width="120" height="60" as="geometry" />
        </mxCell>
        <mxCell id="cqa180hqLIQ2aw_EELrV-6" value="" style="edgeStyle=orthogonalEdgeStyle;rounded=0;orthogonalLoop=1;jettySize=auto;html=1;fontSize=16;" parent="1" source="cqa180hqLIQ2aw_EELrV-4" target="cqa180hqLIQ2aw_EELrV-5" edge="1">
          <mxGeometry relative="1" as="geometry" />
        </mxCell>
        <mxCell id="cqa180hqLIQ2aw_EELrV-4" value="ToF penta array" style="rounded=1;whiteSpace=wrap;html=1;fontSize=16;" parent="1" vertex="1">
          <mxGeometry x="200" y="240" width="120" height="60" as="geometry" />
        </mxCell>
        <mxCell id="6i2Ng4-ThXqG3mX0xS2--31" value="" style="edgeStyle=orthogonalEdgeStyle;rounded=0;orthogonalLoop=1;jettySize=auto;html=1;fontSize=16;" parent="1" source="cqa180hqLIQ2aw_EELrV-5" target="6i2Ng4-ThXqG3mX0xS2--26" edge="1">
          <mxGeometry relative="1" as="geometry" />
        </mxCell>
        <mxCell id="cqa180hqLIQ2aw_EELrV-5" value="XIAO ESP32C3" style="rounded=1;whiteSpace=wrap;html=1;fontSize=16;fillColor=#fa6800;fontColor=#000000;strokeColor=#C73500;" parent="1" vertex="1">
          <mxGeometry x="400" y="240" width="120" height="60" as="geometry" />
        </mxCell>
        <mxCell id="cqa180hqLIQ2aw_EELrV-9" value="" style="edgeStyle=orthogonalEdgeStyle;rounded=0;orthogonalLoop=1;jettySize=auto;html=1;fontSize=16;entryX=0;entryY=0.5;entryDx=0;entryDy=0;" parent="1" source="cqa180hqLIQ2aw_EELrV-7" target="s0LngXk4wrC1B4DQAVKM-4" edge="1">
          <mxGeometry relative="1" as="geometry">
            <mxPoint x="400" y="350" as="targetPoint" />
          </mxGeometry>
        </mxCell>
        <mxCell id="cqa180hqLIQ2aw_EELrV-7" value="Microphone" style="rounded=1;whiteSpace=wrap;html=1;fontSize=16;" parent="1" vertex="1">
          <mxGeometry x="200" y="320" width="120" height="60" as="geometry" />
        </mxCell>
        <mxCell id="6i2Ng4-ThXqG3mX0xS2--32" value="" style="edgeStyle=orthogonalEdgeStyle;rounded=0;orthogonalLoop=1;jettySize=auto;html=1;fontSize=16;exitX=1;exitY=0.5;exitDx=0;exitDy=0;" parent="1" source="s0LngXk4wrC1B4DQAVKM-4" target="6i2Ng4-ThXqG3mX0xS2--27" edge="1">
          <mxGeometry relative="1" as="geometry">
            <mxPoint x="520" y="350" as="sourcePoint" />
          </mxGeometry>
        </mxCell>
        <mxCell id="cqa180hqLIQ2aw_EELrV-12" value="" style="edgeStyle=orthogonalEdgeStyle;rounded=0;orthogonalLoop=1;jettySize=auto;html=1;fontSize=16;" parent="1" source="cqa180hqLIQ2aw_EELrV-10" target="cqa180hqLIQ2aw_EELrV-11" edge="1">
          <mxGeometry relative="1" as="geometry" />
        </mxCell>
        <mxCell id="cqa180hqLIQ2aw_EELrV-10" value="Thermal Camera" style="rounded=1;whiteSpace=wrap;html=1;fontSize=16;" parent="1" vertex="1">
          <mxGeometry x="200" y="400" width="120" height="60" as="geometry" />
        </mxCell>
        <mxCell id="6i2Ng4-ThXqG3mX0xS2--22" value="" style="edgeStyle=orthogonalEdgeStyle;rounded=0;orthogonalLoop=1;jettySize=auto;html=1;fontSize=16;" parent="1" source="cqa180hqLIQ2aw_EELrV-11" target="6i2Ng4-ThXqG3mX0xS2--16" edge="1">
          <mxGeometry relative="1" as="geometry" />
        </mxCell>
        <mxCell id="cqa180hqLIQ2aw_EELrV-11" value="XIAO ESP32C3" style="whiteSpace=wrap;html=1;rounded=1;fontSize=16;fillColor=#fa6800;fontColor=#000000;strokeColor=#C73500;" parent="1" vertex="1">
          <mxGeometry x="400" y="400" width="120" height="60" as="geometry" />
        </mxCell>
        <mxCell id="cqa180hqLIQ2aw_EELrV-15" value="" style="edgeStyle=orthogonalEdgeStyle;rounded=0;orthogonalLoop=1;jettySize=auto;html=1;fontSize=16;" parent="1" source="cqa180hqLIQ2aw_EELrV-13" target="cqa180hqLIQ2aw_EELrV-14" edge="1">
          <mxGeometry relative="1" as="geometry" />
        </mxCell>
        <mxCell id="cqa180hqLIQ2aw_EELrV-13" value="RFID" style="rounded=1;whiteSpace=wrap;html=1;fontSize=16;" parent="1" vertex="1">
          <mxGeometry x="200" y="480" width="120" height="60" as="geometry" />
        </mxCell>
        <mxCell id="6i2Ng4-ThXqG3mX0xS2--23" value="" style="edgeStyle=orthogonalEdgeStyle;rounded=0;orthogonalLoop=1;jettySize=auto;html=1;fontSize=16;" parent="1" source="cqa180hqLIQ2aw_EELrV-14" target="6i2Ng4-ThXqG3mX0xS2--17" edge="1">
          <mxGeometry relative="1" as="geometry" />
        </mxCell>
        <mxCell id="cqa180hqLIQ2aw_EELrV-14" value="Pi" style="whiteSpace=wrap;html=1;rounded=1;fontSize=16;fillColor=#647687;fontColor=#ffffff;strokeColor=#314354;" parent="1" vertex="1">
          <mxGeometry x="400" y="480" width="120" height="60" as="geometry" />
        </mxCell>
        <mxCell id="cqa180hqLIQ2aw_EELrV-18" value="" style="edgeStyle=orthogonalEdgeStyle;rounded=0;orthogonalLoop=1;jettySize=auto;html=1;fontSize=16;" parent="1" source="cqa180hqLIQ2aw_EELrV-16" target="cqa180hqLIQ2aw_EELrV-17" edge="1">
          <mxGeometry relative="1" as="geometry" />
        </mxCell>
        <mxCell id="cqa180hqLIQ2aw_EELrV-16" value="ToF" style="rounded=1;whiteSpace=wrap;html=1;fontSize=16;" parent="1" vertex="1">
          <mxGeometry x="200" y="560" width="120" height="60" as="geometry" />
        </mxCell>
        <mxCell id="6i2Ng4-ThXqG3mX0xS2--24" value="" style="edgeStyle=orthogonalEdgeStyle;rounded=0;orthogonalLoop=1;jettySize=auto;html=1;fontSize=16;" parent="1" source="cqa180hqLIQ2aw_EELrV-17" target="6i2Ng4-ThXqG3mX0xS2--18" edge="1">
          <mxGeometry relative="1" as="geometry" />
        </mxCell>
        <mxCell id="cqa180hqLIQ2aw_EELrV-17" value="XIAO ESP32C3" style="whiteSpace=wrap;html=1;rounded=1;fontSize=16;fillColor=#fa6800;fontColor=#000000;strokeColor=#C73500;" parent="1" vertex="1">
          <mxGeometry x="400" y="560" width="120" height="60" as="geometry" />
        </mxCell>
        <mxCell id="cqa180hqLIQ2aw_EELrV-21" value="" style="edgeStyle=orthogonalEdgeStyle;rounded=0;orthogonalLoop=1;jettySize=auto;html=1;" parent="1" source="cqa180hqLIQ2aw_EELrV-19" target="cqa180hqLIQ2aw_EELrV-1" edge="1">
          <mxGeometry relative="1" as="geometry" />
        </mxCell>
        <mxCell id="cqa180hqLIQ2aw_EELrV-19" value="test/finger1" style="whiteSpace=wrap;html=1;fontSize=16;rounded=0;dashed=1;" parent="1" vertex="1">
          <mxGeometry y="160" width="120" height="60" as="geometry" />
        </mxCell>
        <mxCell id="cqa180hqLIQ2aw_EELrV-27" value="" style="edgeStyle=orthogonalEdgeStyle;rounded=0;orthogonalLoop=1;jettySize=auto;html=1;" parent="1" source="cqa180hqLIQ2aw_EELrV-22" target="cqa180hqLIQ2aw_EELrV-4" edge="1">
          <mxGeometry relative="1" as="geometry" />
        </mxCell>
        <mxCell id="cqa180hqLIQ2aw_EELrV-22" value="test/height1" style="whiteSpace=wrap;html=1;fontSize=16;rounded=0;dashed=1;" parent="1" vertex="1">
          <mxGeometry y="240" width="120" height="60" as="geometry" />
        </mxCell>
        <mxCell id="cqa180hqLIQ2aw_EELrV-28" value="" style="edgeStyle=orthogonalEdgeStyle;rounded=0;orthogonalLoop=1;jettySize=auto;html=1;" parent="1" source="cqa180hqLIQ2aw_EELrV-23" target="cqa180hqLIQ2aw_EELrV-7" edge="1">
          <mxGeometry relative="1" as="geometry" />
        </mxCell>
        <mxCell id="cqa180hqLIQ2aw_EELrV-23" value="test/mic1" style="whiteSpace=wrap;html=1;fontSize=16;rounded=0;dashed=1;" parent="1" vertex="1">
          <mxGeometry y="320" width="120" height="60" as="geometry" />
        </mxCell>
        <mxCell id="cqa180hqLIQ2aw_EELrV-29" value="" style="edgeStyle=orthogonalEdgeStyle;rounded=0;orthogonalLoop=1;jettySize=auto;html=1;" parent="1" source="cqa180hqLIQ2aw_EELrV-24" target="cqa180hqLIQ2aw_EELrV-10" edge="1">
          <mxGeometry relative="1" as="geometry" />
        </mxCell>
        <mxCell id="cqa180hqLIQ2aw_EELrV-24" value="test/thermal1" style="whiteSpace=wrap;html=1;fontSize=16;rounded=0;dashed=1;" parent="1" vertex="1">
          <mxGeometry y="400" width="120" height="60" as="geometry" />
        </mxCell>
        <mxCell id="cqa180hqLIQ2aw_EELrV-30" value="" style="edgeStyle=orthogonalEdgeStyle;rounded=0;orthogonalLoop=1;jettySize=auto;html=1;" parent="1" source="cqa180hqLIQ2aw_EELrV-25" target="cqa180hqLIQ2aw_EELrV-13" edge="1">
          <mxGeometry relative="1" as="geometry" />
        </mxCell>
        <mxCell id="cqa180hqLIQ2aw_EELrV-25" value="test/rfid1" style="whiteSpace=wrap;html=1;fontSize=16;rounded=0;dashed=1;" parent="1" vertex="1">
          <mxGeometry y="480" width="120" height="60" as="geometry" />
        </mxCell>
        <mxCell id="cqa180hqLIQ2aw_EELrV-31" value="" style="edgeStyle=orthogonalEdgeStyle;rounded=0;orthogonalLoop=1;jettySize=auto;html=1;" parent="1" source="cqa180hqLIQ2aw_EELrV-26" target="cqa180hqLIQ2aw_EELrV-16" edge="1">
          <mxGeometry relative="1" as="geometry" />
        </mxCell>
        <mxCell id="cqa180hqLIQ2aw_EELrV-26" value="test/tof1" style="whiteSpace=wrap;html=1;fontSize=16;rounded=0;dashed=1;" parent="1" vertex="1">
          <mxGeometry y="560" width="120" height="60" as="geometry" />
        </mxCell>
        <mxCell id="cqa180hqLIQ2aw_EELrV-33" value="" style="ellipse;whiteSpace=wrap;html=1;aspect=fixed;fillColor=#60a917;fontColor=#ffffff;strokeColor=#2D7600;" parent="1" vertex="1">
          <mxGeometry x="760" y="180" width="20" height="20" as="geometry" />
        </mxCell>
        <mxCell id="cqa180hqLIQ2aw_EELrV-34" value="" style="ellipse;whiteSpace=wrap;html=1;aspect=fixed;fillColor=#60a917;fontColor=#ffffff;strokeColor=#2D7600;" parent="1" vertex="1">
          <mxGeometry x="760" y="260" width="20" height="20" as="geometry" />
        </mxCell>
        <mxCell id="cqa180hqLIQ2aw_EELrV-35" value="" style="ellipse;whiteSpace=wrap;html=1;aspect=fixed;fillColor=#60a917;fontColor=#ffffff;strokeColor=#2D7600;" parent="1" vertex="1">
          <mxGeometry x="760" y="340" width="20" height="20" as="geometry" />
        </mxCell>
        <mxCell id="cqa180hqLIQ2aw_EELrV-36" value="" style="ellipse;whiteSpace=wrap;html=1;aspect=fixed;fillColor=#60a917;fontColor=#ffffff;strokeColor=#2D7600;" parent="1" vertex="1">
          <mxGeometry x="760" y="420" width="20" height="20" as="geometry" />
        </mxCell>
        <mxCell id="cqa180hqLIQ2aw_EELrV-37" value="" style="ellipse;whiteSpace=wrap;html=1;aspect=fixed;fillColor=#60a917;fontColor=#ffffff;strokeColor=#2D7600;" parent="1" vertex="1">
          <mxGeometry x="760" y="500" width="20" height="20" as="geometry" />
        </mxCell>
        <mxCell id="cqa180hqLIQ2aw_EELrV-38" value="" style="ellipse;whiteSpace=wrap;html=1;aspect=fixed;fillColor=#60a917;fontColor=#ffffff;strokeColor=#2D7600;" parent="1" vertex="1">
          <mxGeometry x="760" y="580" width="20" height="20" as="geometry" />
        </mxCell>
        <mxCell id="K-2fhQaBO9Zreb0G1oeB-1" value="" style="edgeStyle=orthogonalEdgeStyle;rounded=0;orthogonalLoop=1;jettySize=auto;html=1;fontSize=16;" parent="1" source="K-2fhQaBO9Zreb0G1oeB-2" target="K-2fhQaBO9Zreb0G1oeB-3" edge="1">
          <mxGeometry relative="1" as="geometry" />
        </mxCell>
        <mxCell id="K-2fhQaBO9Zreb0G1oeB-2" value="ToF" style="rounded=1;whiteSpace=wrap;html=1;fontSize=16;" parent="1" vertex="1">
          <mxGeometry x="200" y="640" width="120" height="60" as="geometry" />
        </mxCell>
        <mxCell id="6i2Ng4-ThXqG3mX0xS2--29" value="" style="edgeStyle=orthogonalEdgeStyle;rounded=0;orthogonalLoop=1;jettySize=auto;html=1;fontSize=16;" parent="1" source="K-2fhQaBO9Zreb0G1oeB-3" target="6i2Ng4-ThXqG3mX0xS2--28" edge="1">
          <mxGeometry relative="1" as="geometry" />
        </mxCell>
        <mxCell id="K-2fhQaBO9Zreb0G1oeB-3" value="XIAO ESP32C3" style="whiteSpace=wrap;html=1;rounded=1;fontSize=16;fillColor=#fa6800;fontColor=#000000;strokeColor=#C73500;" parent="1" vertex="1">
          <mxGeometry x="400" y="640" width="120" height="60" as="geometry" />
        </mxCell>
        <mxCell id="K-2fhQaBO9Zreb0G1oeB-4" value="" style="edgeStyle=orthogonalEdgeStyle;rounded=0;orthogonalLoop=1;jettySize=auto;html=1;" parent="1" source="K-2fhQaBO9Zreb0G1oeB-5" target="K-2fhQaBO9Zreb0G1oeB-2" edge="1">
          <mxGeometry relative="1" as="geometry" />
        </mxCell>
        <mxCell id="K-2fhQaBO9Zreb0G1oeB-5" value="test/tof2" style="whiteSpace=wrap;html=1;fontSize=16;rounded=0;dashed=1;" parent="1" vertex="1">
          <mxGeometry y="640" width="120" height="60" as="geometry" />
        </mxCell>
        <mxCell id="6i2Ng4-ThXqG3mX0xS2--16" value="thermal1_esp32" style="rounded=0;whiteSpace=wrap;html=1;fontSize=16;dashed=1;" parent="1" vertex="1">
          <mxGeometry x="600" y="400" width="120" height="60" as="geometry" />
        </mxCell>
        <mxCell id="6i2Ng4-ThXqG3mX0xS2--17" value="rfid1_pi" style="rounded=0;whiteSpace=wrap;html=1;fontSize=16;dashed=1;" parent="1" vertex="1">
          <mxGeometry x="600" y="480" width="120" height="60" as="geometry" />
        </mxCell>
        <mxCell id="6i2Ng4-ThXqG3mX0xS2--18" value="tof1_esp32" style="rounded=0;whiteSpace=wrap;html=1;fontSize=16;dashed=1;" parent="1" vertex="1">
          <mxGeometry x="600" y="560" width="120" height="60" as="geometry" />
        </mxCell>
        <mxCell id="6i2Ng4-ThXqG3mX0xS2--25" value="finger1_pi" style="rounded=0;whiteSpace=wrap;html=1;fontSize=16;dashed=1;" parent="1" vertex="1">
          <mxGeometry x="600" y="160" width="120" height="60" as="geometry" />
        </mxCell>
        <mxCell id="6i2Ng4-ThXqG3mX0xS2--26" value="height1_esp32" style="rounded=0;whiteSpace=wrap;html=1;fontSize=16;dashed=1;" parent="1" vertex="1">
          <mxGeometry x="600" y="240" width="120" height="60" as="geometry" />
        </mxCell>
        <mxCell id="6i2Ng4-ThXqG3mX0xS2--27" value="mic1_pi" style="rounded=0;whiteSpace=wrap;html=1;fontSize=16;dashed=1;" parent="1" vertex="1">
          <mxGeometry x="600" y="320" width="120" height="60" as="geometry" />
        </mxCell>
        <mxCell id="6i2Ng4-ThXqG3mX0xS2--28" value="tof2_esp32" style="rounded=0;whiteSpace=wrap;html=1;fontSize=16;dashed=1;" parent="1" vertex="1">
          <mxGeometry x="600" y="640" width="120" height="60" as="geometry" />
        </mxCell>
        <mxCell id="6i2Ng4-ThXqG3mX0xS2--33" value="" style="ellipse;whiteSpace=wrap;html=1;aspect=fixed;fillColor=#60a917;fontColor=#ffffff;strokeColor=#2D7600;" parent="1" vertex="1">
          <mxGeometry x="760" y="660" width="20" height="20" as="geometry" />
        </mxCell>
        <mxCell id="6i2Ng4-ThXqG3mX0xS2--34" value="" style="group" parent="1" vertex="1" connectable="0">
          <mxGeometry x="220" y="80" width="110" height="40" as="geometry" />
        </mxCell>
        <mxCell id="6i2Ng4-ThXqG3mX0xS2--2" value="" style="ellipse;whiteSpace=wrap;html=1;aspect=fixed;" parent="6i2Ng4-ThXqG3mX0xS2--34" vertex="1">
          <mxGeometry y="10" width="20" height="20" as="geometry" />
        </mxCell>
        <mxCell id="6i2Ng4-ThXqG3mX0xS2--7" value="To do" style="text;html=1;strokeColor=none;fillColor=none;align=left;verticalAlign=middle;whiteSpace=wrap;rounded=0;fontSize=16;fontStyle=0" parent="6i2Ng4-ThXqG3mX0xS2--34" vertex="1">
          <mxGeometry x="30" width="80" height="40" as="geometry" />
        </mxCell>
        <mxCell id="6i2Ng4-ThXqG3mX0xS2--35" value="" style="group" parent="1" vertex="1" connectable="0">
          <mxGeometry x="340" y="80" width="110" height="40" as="geometry" />
        </mxCell>
        <mxCell id="6i2Ng4-ThXqG3mX0xS2--36" value="" style="ellipse;whiteSpace=wrap;html=1;aspect=fixed;fillColor=#1ba1e2;fontColor=#ffffff;strokeColor=#006EAF;" parent="6i2Ng4-ThXqG3mX0xS2--35" vertex="1">
          <mxGeometry y="10" width="20" height="20" as="geometry" />
        </mxCell>
        <mxCell id="6i2Ng4-ThXqG3mX0xS2--37" value="Code" style="text;html=1;strokeColor=none;fillColor=none;align=left;verticalAlign=middle;whiteSpace=wrap;rounded=0;fontSize=16;fontStyle=0" parent="6i2Ng4-ThXqG3mX0xS2--35" vertex="1">
          <mxGeometry x="30" width="80" height="40" as="geometry" />
        </mxCell>
        <mxCell id="6i2Ng4-ThXqG3mX0xS2--38" value="" style="group" parent="1" vertex="1" connectable="0">
          <mxGeometry x="460" y="80" width="110" height="40" as="geometry" />
        </mxCell>
        <mxCell id="6i2Ng4-ThXqG3mX0xS2--39" value="" style="ellipse;whiteSpace=wrap;html=1;aspect=fixed;fillColor=#60a917;fontColor=#ffffff;strokeColor=#2D7600;" parent="6i2Ng4-ThXqG3mX0xS2--38" vertex="1">
          <mxGeometry y="10" width="20" height="20" as="geometry" />
        </mxCell>
        <mxCell id="6i2Ng4-ThXqG3mX0xS2--40" value="Verified" style="text;html=1;strokeColor=none;fillColor=none;align=left;verticalAlign=middle;whiteSpace=wrap;rounded=0;fontSize=16;fontStyle=0" parent="6i2Ng4-ThXqG3mX0xS2--38" vertex="1">
          <mxGeometry x="30" width="80" height="40" as="geometry" />
        </mxCell>
        <mxCell id="s0LngXk4wrC1B4DQAVKM-3" value="" style="edgeStyle=orthogonalEdgeStyle;rounded=0;orthogonalLoop=1;jettySize=auto;html=1;" parent="1" source="s0LngXk4wrC1B4DQAVKM-1" target="6i2Ng4-ThXqG3mX0xS2--25" edge="1">
          <mxGeometry relative="1" as="geometry" />
        </mxCell>
        <mxCell id="s0LngXk4wrC1B4DQAVKM-1" value="Nano -&amp;gt; Pi" style="whiteSpace=wrap;html=1;rounded=1;fontSize=16;fillColor=#6d8764;fontColor=#ffffff;strokeColor=#3A5431;" parent="1" vertex="1">
          <mxGeometry x="400" y="160" width="120" height="60" as="geometry" />
        </mxCell>
        <mxCell id="s0LngXk4wrC1B4DQAVKM-4" value="Nano -&amp;gt; Pi" style="whiteSpace=wrap;html=1;rounded=1;fontSize=16;fillColor=#6d8764;fontColor=#ffffff;strokeColor=#3A5431;" parent="1" vertex="1">
          <mxGeometry x="400" y="320" width="120" height="60" as="geometry" />
        </mxCell>
        <mxCell id="L5tP4J_9Vo0bheGGgJwC-2" value="Trigger" style="text;html=1;strokeColor=default;fillColor=none;align=center;verticalAlign=middle;whiteSpace=wrap;rounded=0;fontSize=16;" parent="1" vertex="1">
          <mxGeometry x="120" y="920" width="80" height="40" as="geometry" />
        </mxCell>
        <mxCell id="L5tP4J_9Vo0bheGGgJwC-7" value="Check Presence" style="text;html=1;strokeColor=default;fillColor=none;align=center;verticalAlign=middle;whiteSpace=wrap;rounded=0;fontSize=16;" parent="1" vertex="1">
          <mxGeometry x="280" y="920" width="120" height="40" as="geometry" />
        </mxCell>
        <mxCell id="L5tP4J_9Vo0bheGGgJwC-11" value="Used Toilet Handle" style="text;html=1;strokeColor=default;fillColor=none;align=center;verticalAlign=middle;whiteSpace=wrap;rounded=0;fontSize=16;" parent="1" vertex="1">
          <mxGeometry x="480" y="920" width="120" height="40" as="geometry" />
        </mxCell>
        <mxCell id="L5tP4J_9Vo0bheGGgJwC-12" value="height1" style="whiteSpace=wrap;html=1;fontSize=16;rounded=0;dashed=1;strokeColor=#000000;" parent="1" vertex="1">
          <mxGeometry x="120" y="760" width="80" height="40" as="geometry" />
        </mxCell>
        <mxCell id="L5tP4J_9Vo0bheGGgJwC-13" value="finger1" style="whiteSpace=wrap;html=1;fontSize=16;rounded=0;dashed=1;" parent="1" vertex="1">
          <mxGeometry x="520" y="760" width="80" height="40" as="geometry" />
        </mxCell>
        <mxCell id="L5tP4J_9Vo0bheGGgJwC-14" value="mic1" style="whiteSpace=wrap;html=1;fontSize=16;rounded=0;dashed=1;" parent="1" vertex="1">
          <mxGeometry x="640" y="760" width="80" height="40" as="geometry" />
        </mxCell>
        <mxCell id="L5tP4J_9Vo0bheGGgJwC-15" value="thermal1" style="whiteSpace=wrap;html=1;fontSize=16;rounded=0;dashed=1;" parent="1" vertex="1">
          <mxGeometry x="240" y="760" width="80" height="40" as="geometry" />
        </mxCell>
        <mxCell id="L5tP4J_9Vo0bheGGgJwC-16" value="rfid1" style="whiteSpace=wrap;html=1;fontSize=16;rounded=0;dashed=1;" parent="1" vertex="1">
          <mxGeometry x="760" y="760" width="80" height="40" as="geometry" />
        </mxCell>
        <mxCell id="L5tP4J_9Vo0bheGGgJwC-17" value="tof1" style="whiteSpace=wrap;html=1;fontSize=16;rounded=0;dashed=1;" parent="1" vertex="1">
          <mxGeometry x="360" y="760" width="40" height="40" as="geometry" />
        </mxCell>
        <mxCell id="L5tP4J_9Vo0bheGGgJwC-18" value="tof2" style="whiteSpace=wrap;html=1;fontSize=16;rounded=0;dashed=1;" parent="1" vertex="1">
          <mxGeometry x="440" y="760" width="40" height="40" as="geometry" />
        </mxCell>
        <mxCell id="L5tP4J_9Vo0bheGGgJwC-19" value="" style="endArrow=classic;html=1;rounded=0;fontSize=16;entryX=0.5;entryY=0;entryDx=0;entryDy=0;exitX=0.5;exitY=1;exitDx=0;exitDy=0;" parent="1" source="L5tP4J_9Vo0bheGGgJwC-12" target="L5tP4J_9Vo0bheGGgJwC-2" edge="1">
          <mxGeometry width="50" height="50" relative="1" as="geometry">
            <mxPoint x="250" y="860" as="sourcePoint" />
            <mxPoint x="530" y="760" as="targetPoint" />
          </mxGeometry>
        </mxCell>
        <mxCell id="L5tP4J_9Vo0bheGGgJwC-23" value="" style="endArrow=classic;html=1;rounded=0;fontSize=16;entryX=0.5;entryY=0;entryDx=0;entryDy=0;exitX=0.5;exitY=1;exitDx=0;exitDy=0;" parent="1" source="L5tP4J_9Vo0bheGGgJwC-18" target="L5tP4J_9Vo0bheGGgJwC-7" edge="1">
          <mxGeometry width="50" height="50" relative="1" as="geometry">
            <mxPoint x="170" y="810" as="sourcePoint" />
            <mxPoint x="170" y="930" as="targetPoint" />
          </mxGeometry>
        </mxCell>
        <mxCell id="L5tP4J_9Vo0bheGGgJwC-24" value="" style="endArrow=classic;html=1;rounded=0;fontSize=16;entryX=0.5;entryY=0;entryDx=0;entryDy=0;exitX=0.5;exitY=1;exitDx=0;exitDy=0;" parent="1" source="L5tP4J_9Vo0bheGGgJwC-17" target="L5tP4J_9Vo0bheGGgJwC-7" edge="1">
          <mxGeometry width="50" height="50" relative="1" as="geometry">
            <mxPoint x="180" y="820" as="sourcePoint" />
            <mxPoint x="180" y="940" as="targetPoint" />
          </mxGeometry>
        </mxCell>
        <mxCell id="L5tP4J_9Vo0bheGGgJwC-25" value="" style="endArrow=classic;html=1;rounded=0;fontSize=16;entryX=0.5;entryY=0;entryDx=0;entryDy=0;exitX=0.5;exitY=1;exitDx=0;exitDy=0;" parent="1" source="L5tP4J_9Vo0bheGGgJwC-15" target="L5tP4J_9Vo0bheGGgJwC-7" edge="1">
          <mxGeometry width="50" height="50" relative="1" as="geometry">
            <mxPoint x="190" y="830" as="sourcePoint" />
            <mxPoint x="190" y="950" as="targetPoint" />
          </mxGeometry>
        </mxCell>
        <mxCell id="L5tP4J_9Vo0bheGGgJwC-26" value="" style="endArrow=classic;html=1;rounded=0;fontSize=16;entryX=0.5;entryY=0;entryDx=0;entryDy=0;exitX=0.5;exitY=1;exitDx=0;exitDy=0;" parent="1" source="L5tP4J_9Vo0bheGGgJwC-13" target="L5tP4J_9Vo0bheGGgJwC-11" edge="1">
          <mxGeometry width="50" height="50" relative="1" as="geometry">
            <mxPoint x="530" y="810" as="sourcePoint" />
            <mxPoint x="350" y="930" as="targetPoint" />
          </mxGeometry>
        </mxCell>
        <mxCell id="L5tP4J_9Vo0bheGGgJwC-27" value="ID" style="text;html=1;strokeColor=default;fillColor=none;align=center;verticalAlign=middle;whiteSpace=wrap;rounded=0;fontSize=16;" parent="1" vertex="1">
          <mxGeometry x="680" y="920" width="120" height="40" as="geometry" />
        </mxCell>
        <mxCell id="L5tP4J_9Vo0bheGGgJwC-28" value="" style="endArrow=classic;html=1;rounded=0;fontSize=16;entryX=0.5;entryY=0;entryDx=0;entryDy=0;exitX=0.5;exitY=1;exitDx=0;exitDy=0;" parent="1" source="L5tP4J_9Vo0bheGGgJwC-13" target="L5tP4J_9Vo0bheGGgJwC-27" edge="1">
          <mxGeometry width="50" height="50" relative="1" as="geometry">
            <mxPoint x="650" y="810" as="sourcePoint" />
            <mxPoint x="550" y="930" as="targetPoint" />
          </mxGeometry>
        </mxCell>
        <mxCell id="L5tP4J_9Vo0bheGGgJwC-29" value="" style="endArrow=classic;html=1;rounded=0;fontSize=16;entryX=0.5;entryY=0;entryDx=0;entryDy=0;exitX=0.5;exitY=1;exitDx=0;exitDy=0;" parent="1" source="L5tP4J_9Vo0bheGGgJwC-14" target="L5tP4J_9Vo0bheGGgJwC-27" edge="1">
          <mxGeometry width="50" height="50" relative="1" as="geometry">
            <mxPoint x="650" y="810" as="sourcePoint" />
            <mxPoint x="750" y="930" as="targetPoint" />
          </mxGeometry>
        </mxCell>
        <mxCell id="L5tP4J_9Vo0bheGGgJwC-30" value="" style="endArrow=classic;html=1;rounded=0;fontSize=16;entryX=0.5;entryY=0;entryDx=0;entryDy=0;exitX=0.5;exitY=1;exitDx=0;exitDy=0;" parent="1" source="L5tP4J_9Vo0bheGGgJwC-16" target="L5tP4J_9Vo0bheGGgJwC-27" edge="1">
          <mxGeometry width="50" height="50" relative="1" as="geometry">
            <mxPoint x="770" y="810" as="sourcePoint" />
            <mxPoint x="750" y="930" as="targetPoint" />
          </mxGeometry>
        </mxCell>
        <mxCell id="L5tP4J_9Vo0bheGGgJwC-31" value="" style="shape=flexArrow;endArrow=classic;html=1;rounded=0;fontSize=16;" parent="1" edge="1">
          <mxGeometry width="50" height="50" relative="1" as="geometry">
            <mxPoint x="210" y="940" as="sourcePoint" />
            <mxPoint x="270" y="940" as="targetPoint" />
          </mxGeometry>
        </mxCell>
        <mxCell id="L5tP4J_9Vo0bheGGgJwC-32" value="" style="shape=flexArrow;endArrow=classic;html=1;rounded=0;fontSize=16;" parent="1" edge="1">
          <mxGeometry width="50" height="50" relative="1" as="geometry">
            <mxPoint x="410" y="940" as="sourcePoint" />
            <mxPoint x="470" y="940" as="targetPoint" />
          </mxGeometry>
        </mxCell>
        <mxCell id="L5tP4J_9Vo0bheGGgJwC-33" value="" style="shape=flexArrow;endArrow=classic;html=1;rounded=0;fontSize=16;" parent="1" edge="1">
          <mxGeometry width="50" height="50" relative="1" as="geometry">
            <mxPoint x="610" y="939.5" as="sourcePoint" />
            <mxPoint x="670" y="939.5" as="targetPoint" />
          </mxGeometry>
        </mxCell>
        <mxCell id="L5tP4J_9Vo0bheGGgJwC-34" value="" style="endArrow=classic;html=1;rounded=0;fontSize=16;entryX=0.5;entryY=0;entryDx=0;entryDy=0;exitX=0.5;exitY=1;exitDx=0;exitDy=0;" parent="1" source="L5tP4J_9Vo0bheGGgJwC-12" target="L5tP4J_9Vo0bheGGgJwC-27" edge="1">
          <mxGeometry width="50" height="50" relative="1" as="geometry">
            <mxPoint x="170" y="810" as="sourcePoint" />
            <mxPoint x="170" y="930" as="targetPoint" />
          </mxGeometry>
        </mxCell>
        <mxCell id="L5tP4J_9Vo0bheGGgJwC-35" value="Sensors:" style="text;html=1;strokeColor=none;fillColor=none;align=center;verticalAlign=middle;whiteSpace=wrap;rounded=0;strokeWidth=3;fontSize=16;" parent="1" vertex="1">
          <mxGeometry x="20" y="760" width="80" height="40" as="geometry" />
        </mxCell>
        <mxCell id="L5tP4J_9Vo0bheGGgJwC-36" value="Procedure:" style="text;html=1;strokeColor=none;fillColor=none;align=center;verticalAlign=middle;whiteSpace=wrap;rounded=0;strokeWidth=3;fontSize=16;" parent="1" vertex="1">
          <mxGeometry x="20" y="920" width="80" height="40" as="geometry" />
        </mxCell>
      </root>
    </mxGraphModel>
  </diagram>
</mxfile>
